<svg width="86" height="86" viewBox="0 0 86 86" fill="none" xmlns="http://www.w3.org/2000/svg">
<circle cx="43" cy="43" r="43" fill="url(#paint0_linear_270_404)"/>
<path d="M39.7792 30.0188L39.3739 28.7018C39.3405 28.5932 39.2402 28.519 39.1265 28.519H37.5543C37.5222 28.519 37.4904 28.525 37.4605 28.5366L35.1761 29.425L32.2674 30.5632C32.2229 30.5806 32.1841 30.61 32.1553 30.6481L30.4063 32.9593C30.3938 32.9758 30.3833 32.9938 30.3751 33.0128L29.3521 35.3785L27.9359 39.0476C27.9309 39.0606 27.927 39.0739 27.9241 39.0875L27.1574 42.7293C27.1537 42.7468 27.1519 42.7647 27.1519 42.7826V46.3795V49.861C27.1519 49.9497 27.1973 50.0322 27.2722 50.0796L31.0079 52.4456C31.0256 52.4568 31.0446 52.4658 31.0645 52.4725L33.3642 53.239L35.4878 54.0649C35.6065 54.111 35.7411 54.064 35.8052 53.954L37.3742 51.2644C37.4467 51.1401 37.4039 50.9806 37.279 50.9092L34.9153 49.5585C34.8365 49.5135 34.7879 49.4297 34.7879 49.339C34.7879 49.1608 34.9673 49.0385 35.1332 49.1037L38.3846 50.381C38.4027 50.3881 38.4214 50.3932 38.4405 50.396L42.6635 51.0359C42.6763 51.0378 42.6892 51.0388 42.7022 51.0388H45.896C45.9109 51.0388 45.9257 51.0375 45.9403 51.035L48.8617 50.5269C48.8839 50.5231 48.9054 50.5163 48.9258 50.5069L52.0962 49.0437C52.1947 48.9982 52.311 49.019 52.3877 49.0957L52.5332 49.2411C52.6554 49.3633 52.6258 49.5686 52.4741 49.6514L50.1716 50.9073C50.0408 50.9786 49.9971 51.1454 50.076 51.2717L51.7577 53.9624C51.8239 54.0682 51.956 54.1118 52.0721 54.0661L56.1217 52.4708C56.1358 52.4652 56.1493 52.4585 56.1621 52.4506L60.0464 50.0699C60.1149 50.028 60.16 49.9567 60.1685 49.8768L60.5403 46.4071C60.5422 46.3888 60.5422 46.3703 60.5403 46.352L60.155 42.7557L59.5115 39.088C59.5091 39.0741 59.5055 39.0604 59.5008 39.047L58.2136 35.3785L57.0599 33.0069C57.0525 32.9918 57.0437 32.9774 57.0335 32.964L55.2762 30.6418C55.2504 30.6077 55.2165 30.5805 55.1776 30.5627L52.1613 29.1802C52.141 29.1709 52.1195 29.1642 52.0975 29.1604L48.5313 28.5456C48.4366 28.5293 48.3407 28.5667 48.2822 28.6428L47.1609 30.1005C47.1119 30.1642 47.0361 30.2016 46.9557 30.2016H40.0266C39.9129 30.2016 39.8126 30.1274 39.7792 30.0188Z" fill="white" fill-opacity="0.75"/>
<circle cx="38.2825" cy="42.4973" r="3.36502" fill="#3AB9B0"/>
<circle cx="49.4131" cy="42.4973" r="3.36502" fill="#3CBBB2"/>
<defs>
<linearGradient id="paint0_linear_270_404" x1="86.2429" y1="-1.16201e-05" x2="-14.2457" y2="23.1744" gradientUnits="userSpaceOnUse">
<stop stop-color="#4ECDC4"/>
<stop offset="1" stop-color="#26A69D"/>
</linearGradient>
</defs>
</svg>
