<svg width="169" height="169" viewBox="0 0 169 169" fill="none" xmlns="http://www.w3.org/2000/svg">
<circle cx="84.8371" cy="84.8546" r="84.1457" fill="url(#paint0_linear_282_7)"/>
<path d="M83.934 45.2979C73.7896 45.2979 72.5165 45.3422 68.5322 45.5235C64.5557 45.7056 61.8414 46.3352 59.4664 47.2589C57.0097 48.213 54.9257 49.4893 52.8495 51.5663C50.7718 53.6426 49.4955 55.7266 48.5384 58.1826C47.6123 60.5585 46.982 63.2736 46.803 67.2487C46.6248 71.2331 46.5781 72.5071 46.5781 82.6518C46.5781 92.7965 46.6233 94.0657 46.8038 98.0501C46.9867 102.027 47.6162 104.741 48.5391 107.116C49.494 109.573 50.7702 111.657 52.8472 113.733C54.9226 115.811 57.0066 117.09 59.4617 118.045C61.8383 118.968 64.5534 119.598 68.5291 119.78C72.5134 119.961 73.7857 120.006 83.9293 120.006C94.0745 120.006 95.3437 119.961 99.328 119.78C103.305 119.598 106.022 118.968 108.399 118.045C110.854 117.09 112.935 115.811 115.011 113.733C117.088 111.657 118.365 109.573 119.322 107.117C120.24 104.741 120.87 102.026 121.057 98.0509C121.236 94.0665 121.283 92.7965 121.283 82.6518C121.283 72.5071 121.236 71.2339 121.057 67.2495C120.87 63.2729 120.24 60.5585 119.322 58.1834C118.365 55.7266 117.088 53.6426 115.011 51.5663C112.933 49.4885 110.855 48.2122 108.396 47.2589C106.015 46.3352 103.299 45.7056 99.3226 45.5235C95.3383 45.3422 94.0698 45.2979 83.9223 45.2979H83.934ZM80.5832 52.0293C81.5777 52.0278 82.6874 52.0293 83.934 52.0293C93.9072 52.0293 95.0893 52.0651 99.0276 52.2441C102.67 52.4107 104.646 53.0192 105.963 53.5305C107.706 54.2075 108.949 55.0169 110.255 56.3243C111.563 57.6316 112.372 58.8768 113.05 60.62C113.562 61.9351 114.171 63.9118 114.337 67.5538C114.516 71.4915 114.555 72.6744 114.555 82.6432C114.555 92.612 114.516 93.7949 114.337 97.7326C114.17 101.375 113.562 103.351 113.05 104.666C112.373 106.41 111.563 107.651 110.255 108.957C108.948 110.265 107.707 111.074 105.963 111.751C104.648 112.265 102.67 112.872 99.0276 113.038C95.09 113.217 93.9072 113.256 83.934 113.256C73.96 113.256 72.778 113.217 68.8404 113.038C65.1985 112.87 63.2219 112.262 61.9044 111.75C60.1613 111.073 58.9162 110.264 57.6089 108.957C56.3015 107.649 55.4922 106.407 54.8136 104.663C54.3024 103.348 53.6931 101.372 53.5273 97.7295C53.3483 93.7918 53.3125 92.6089 53.3125 82.6339C53.3125 72.6588 53.3483 71.4822 53.5273 67.5444C53.6938 63.9024 54.3024 61.9258 54.8136 60.6091C55.4907 58.8659 56.3015 57.6207 57.6089 56.3134C58.9162 55.006 60.1613 54.1966 61.9044 53.518C63.2211 53.0044 65.1985 52.3974 68.8404 52.2301C72.2862 52.0745 73.6215 52.0278 80.5832 52.02V52.0293ZM103.873 58.2316C101.398 58.2316 99.3903 60.2371 99.3903 62.7126C99.3903 65.1872 101.398 67.195 103.873 67.195C106.347 67.195 108.355 65.1872 108.355 62.7126C108.355 60.2379 106.347 58.2301 103.873 58.2301V58.2316ZM83.934 63.469C73.3406 63.469 64.7518 72.058 64.7518 82.6518C64.7518 93.2455 73.3406 101.831 83.934 101.831C94.5274 101.831 103.113 93.2455 103.113 82.6518C103.113 72.058 94.5266 63.469 83.9332 63.469H83.934ZM83.934 70.2005C90.81 70.2005 96.3849 75.7747 96.3849 82.6518C96.3849 89.528 90.81 95.1031 83.934 95.1031C77.0572 95.1031 71.4831 89.528 71.4831 82.6518C71.4831 75.7747 77.0572 70.2005 83.934 70.2005V70.2005Z" fill="white" fill-opacity="0.75"/>
<defs>
<linearGradient id="paint0_linear_282_7" x1="169.458" y1="0.708962" x2="-27.1857" y2="46.0584" gradientUnits="userSpaceOnUse">
<stop stop-color="#4ECDC4"/>
<stop offset="1" stop-color="#26A69D"/>
</linearGradient>
</defs>
</svg>
