<svg width="169" height="170" viewBox="0 0 169 170" fill="none" xmlns="http://www.w3.org/2000/svg">
<circle cx="84.2482" cy="84.9875" r="84.1457" fill="url(#paint0_linear_282_10)"/>
<path fill-rule="evenodd" clip-rule="evenodd" d="M51.8825 46.0229C48.9664 46.0229 46.6025 48.3869 46.6025 51.3029V115.129C46.6025 118.045 48.9664 120.409 51.8825 120.409H115.708C118.624 120.409 120.988 118.045 120.988 115.129V51.3029C120.988 48.3869 118.624 46.0229 115.708 46.0229H51.8825ZM63.2987 69.1236C66.8626 69.1236 69.7517 66.2345 69.7517 62.6706C69.7517 59.1067 66.8626 56.2176 63.2987 56.2176C59.7349 56.2176 56.8458 59.1067 56.8458 62.6706C56.8458 66.2345 59.7349 69.1236 63.2987 69.1236ZM75.6615 73.8925H86.3561V78.7918C86.3561 78.7918 89.2583 72.9875 97.1545 72.9875C104.198 72.9875 110.033 76.4574 110.033 87.0342V109.338H98.9508V89.7368C98.9508 83.4975 95.6197 82.8113 93.0815 82.8113C87.8138 82.8113 86.9119 87.355 86.9119 90.5506V109.338H75.6615V73.8925ZM68.924 73.8925H57.6735V109.338H68.924V73.8925Z" fill="white" fill-opacity="0.75"/>
<defs>
<linearGradient id="paint0_linear_282_10" x1="168.869" y1="0.841774" x2="-27.7746" y2="46.1912" gradientUnits="userSpaceOnUse">
<stop stop-color="#4ECDC4"/>
<stop offset="1" stop-color="#26A69D"/>
</linearGradient>
</defs>
</svg>
