<svg width="87" height="86" viewBox="0 0 87 86" fill="none" xmlns="http://www.w3.org/2000/svg">
<circle cx="43.8569" cy="43" r="43" fill="url(#paint0_linear_270_407)"/>
<path fill-rule="evenodd" clip-rule="evenodd" d="M27.2591 41.7399C37.565 37.6221 44.4373 34.9074 47.8759 33.5958C57.6936 29.8509 59.7337 29.2004 61.0634 29.1789C61.3558 29.1742 62.0097 29.2407 62.4333 29.5559C62.7909 29.822 62.8893 30.1815 62.9364 30.4339C62.9835 30.6862 63.0422 31.261 62.9955 31.7102C62.4635 36.8366 60.1614 49.2772 58.9903 55.0189C58.4947 57.4485 57.5189 58.2631 56.5743 58.3428C54.5213 58.5161 52.9623 57.0986 50.9739 55.9033C47.8624 54.0328 46.1046 52.8684 43.0844 51.0432C39.594 48.9338 41.8567 47.7745 43.8458 45.8798C44.3664 45.3839 53.4119 37.8387 53.587 37.1542C53.6089 37.0686 53.6292 36.7495 53.4225 36.581C53.2158 36.4125 52.9107 36.4701 52.6906 36.516C52.3785 36.5809 47.4078 39.5939 37.7786 45.5548C36.3677 46.4433 35.0898 46.8762 33.9448 46.8535C32.6825 46.8285 30.2544 46.199 28.4494 45.6609C26.2354 45.0009 24.4758 44.6519 24.6291 43.5311C24.7089 42.9473 25.5855 42.3502 27.2591 41.7399Z" fill="white" fill-opacity="0.75"/>
<defs>
<linearGradient id="paint0_linear_270_407" x1="87.0999" y1="-1.16201e-05" x2="-13.3888" y2="23.1744" gradientUnits="userSpaceOnUse">
<stop stop-color="#4ECDC4"/>
<stop offset="1" stop-color="#26A69D"/>
</linearGradient>
</defs>
</svg>
