<svg width="87" height="86" viewBox="0 0 87 86" fill="none" xmlns="http://www.w3.org/2000/svg">
<circle cx="43.7142" cy="43" r="43" fill="url(#paint0_linear_270_415)"/>
<path d="M64.3709 31.4715C62.8854 32.1286 61.31 32.5602 59.6969 32.7519C61.3972 31.735 62.6697 30.1347 63.2774 28.2491C61.6817 29.1987 59.9324 29.8642 58.1091 30.2242C56.8844 28.9138 55.261 28.0447 53.4914 27.7521C51.7218 27.4595 49.9051 27.7597 48.3238 28.6061C46.7424 29.4525 45.485 30.7976 44.7469 32.4324C44.0089 34.0671 43.8317 35.8999 44.2427 37.6458C41.0069 37.4836 37.8414 36.6427 34.9517 35.1777C32.062 33.7128 29.5126 31.6564 27.4692 29.1423C26.7459 30.3846 26.3658 31.7969 26.3678 33.2345C26.3678 36.056 27.8039 38.5487 29.9872 40.0081C28.6951 39.9674 27.4315 39.6185 26.3017 38.9904V39.0916C26.3021 40.9707 26.9523 42.7919 28.1422 44.2463C29.3321 45.7008 30.9883 46.699 32.8301 47.0716C31.6307 47.3967 30.3731 47.4446 29.1524 47.2117C29.6717 48.8292 30.6838 50.2438 32.0471 51.2574C33.4103 52.2711 35.0565 52.833 36.755 52.8645C35.0669 54.1903 33.134 55.1704 31.0669 55.7487C28.9998 56.327 26.839 56.4922 24.708 56.2348C28.4279 58.6271 32.7583 59.8972 37.1811 59.8931C52.1508 59.8931 60.3371 47.492 60.3371 36.7371C60.3371 36.3868 60.3274 36.0326 60.3118 35.6863C61.9052 34.5346 63.2805 33.108 64.3729 31.4734L64.3709 31.4715Z" fill="white" fill-opacity="0.75"/>
<defs>
<linearGradient id="paint0_linear_270_415" x1="86.9572" y1="-1.16201e-05" x2="-13.5315" y2="23.1744" gradientUnits="userSpaceOnUse">
<stop stop-color="#4ECDC4"/>
<stop offset="1" stop-color="#26A69D"/>
</linearGradient>
</defs>
</svg>
